<svg id="maintenance" enable-background="new 0 0 609.631 609.631" viewBox="0 0 609.631 609.631" xmlns="http://www.w3.org/2000/svg"><g><g id="Page-1_18_"><g id="_x30_19---House-Maintanence" transform="translate(-1 -1)"><path id="Shape_48_" d="m23.635 246.797c3.982 4.804 9.775 7.746 16.003 8.128h1.443c3.761-.006 7.462-.945 10.77-2.733v160.005c.022 19.799 16.067 35.844 35.866 35.866h207.586l-59.143 68.389c-20.571 23.778-17.972 59.731 5.807 80.302 23.778 20.571 59.731 17.972 80.302-5.807l121.924-141.036c44.852 12.243 92.837-.064 126.259-32.384s47.333-79.864 36.601-125.102c-1.676-7.222-7.276-12.885-14.479-14.641-7.101-1.777-14.597.615-19.355 6.177l-56.481 65.321-59.814-1.097-9.713-59.042 56.491-65.301c4.798-5.513 6.09-13.254 3.343-20.026-2.79-6.862-9.2-11.575-16.582-12.192-13.15-1.091-26.39-.187-39.27 2.682l-43.73-39.808v-89.886c-.017-12.675-10.288-22.946-22.962-22.962h-45.518c-12.675.017-22.946 10.288-22.962 22.962v6.858l-70.96-64.437c-8.678-8.044-22.088-8.044-30.766 0l-205.616 186.676c-9.365 8.667-10.26 23.166-2.032 32.919zm160.299 180.945v-111.763c0-5.611 4.549-10.16 10.16-10.16h71.122c5.611 0 10.16 4.549 10.16 10.16v111.764h-91.442zm111.764 0v-111.763c0-16.834-13.647-30.481-30.481-30.481h-71.122c-16.834 0-30.481 13.647-30.481 30.481v111.764h-75.898c-8.581-.011-15.534-6.965-15.545-15.545v-177.45l157.485-142.998 154.214 140.121c-1.534 1.595-3.17 3.048-4.623 4.735-33.247 38.321-41.469 92.356-21.123 138.831l-45.244 52.305zm183.232-216.364c2.804 0 5.619.102 8.423.315l-58.554 67.708c-1.973 2.283-2.829 5.324-2.337 8.301l11.857 72.077c.794 4.84 4.931 8.422 9.835 8.514l73.033 1.341c3.02.058 5.909-1.23 7.884-3.515l58.584-67.749c8.811 39.155-4.118 80.023-33.845 106.987s-71.659 35.856-109.771 23.279c-3.907-1.276-8.198-.073-10.872 3.048l-126.292 145.964c-8.556 9.895-21.741 14.474-34.588 12.012s-23.405-11.591-27.697-23.948-1.665-26.065 6.891-35.96l126.313-146.004c2.679-3.102 3.232-7.509 1.402-11.176-17.246-34.546-15.377-75.557 4.939-108.391s56.183-52.809 94.794-52.792v-.011zm-142.59-146.766c.037-1.443 1.198-2.604 2.642-2.642h45.518c1.443.037 2.604 1.198 2.642 2.642v71.437l-50.802-46.128zm-313.955 144.073 205.605-186.675c.941-.908 2.432-.908 3.373 0l197.232 179.157c-10.534 4.404-20.455 10.152-29.516 17.1l-162.565-147.721c-3.875-3.521-9.791-3.521-13.666 0l-167.95 152.466h-.061l-12.131 11.024c-.481.428-1.104.663-1.748.66-.7-.053-1.344-.405-1.768-.965l-17.039-20.178c-1.143-1.455-1.044-3.529.234-4.868z"/><path id="Path_34_" clip-rule="evenodd" d="m294.164 521.299-18.644 21.753c-3.474 4.277-2.906 10.543 1.28 14.125 4.186 3.583 10.465 3.176 14.154-.917l18.644-21.753c3.474-4.277 2.906-10.543-1.28-14.125s-10.465-3.176-14.154.917z" fill-rule="evenodd"/></g></g></g></svg>